<svg width="115" height="48" viewBox="0 0 115 48" fill="none" xmlns="http://www.w3.org/2000/svg">
    <g clip-path="url(#clip0_13915_107)">
        <path d="M98.6861 47.7895C95.4595 47.7895 92.3053 46.7852 89.6225 44.9038C86.9397 43.0223 84.8487 40.3481 83.6139 37.2193C82.3791 34.0905 82.0561 30.6477 82.6855 27.3262C83.315 24.0047 84.8688 20.9538 87.1503 18.5591C89.4319 16.1644 92.3388 14.5336 95.5034 13.873C98.668 13.2123 101.948 13.5514 104.929 14.8474C107.91 16.1433 110.458 18.338 112.251 21.1538C114.043 23.9696 115 27.2801 115 30.6667C114.995 35.2063 113.275 39.5585 110.216 42.7685C107.158 45.9784 103.011 47.7842 98.6861 47.7895V47.7895ZM98.6861 20.0609C96.6874 20.0627 94.7341 20.6864 93.0731 21.8532C91.4121 23.02 90.118 24.6775 89.3543 26.6161C88.5907 28.5548 88.3919 30.6875 88.783 32.7447C89.1741 34.802 90.1376 36.6913 91.5517 38.1738C92.9657 39.6564 94.7668 40.6657 96.7272 41.074C98.6877 41.4824 100.72 41.2714 102.566 40.4679C104.412 39.6644 105.99 38.3044 107.1 36.5599C108.21 34.8153 108.802 32.7645 108.802 30.6667C108.798 27.853 107.731 25.1558 105.834 23.1673C103.938 21.1788 101.367 20.0615 98.6861 20.0609V20.0609Z"
              fill="#0085FF"/>
        <path d="M77.1599 41.275H67.1232V16.7246C67.134 16.2897 67.0618 15.8569 66.9107 15.4517C66.7596 15.0466 66.5327 14.6773 66.2435 14.3656C65.9542 14.0539 65.6084 13.8063 65.2265 13.6371C64.8445 13.468 64.4342 13.3809 64.0196 13.3809C63.6051 13.3809 63.1947 13.468 62.8128 13.6371C62.4309 13.8063 62.0851 14.0539 61.7958 14.3656C61.5066 14.6773 61.2797 15.0466 61.1286 15.4517C60.9775 15.8569 60.9053 16.2897 60.9161 16.7246V44.5313C60.9161 44.9592 60.9964 45.3829 61.1524 45.7782C61.3084 46.1736 61.5371 46.5328 61.8254 46.8354C62.1137 47.1379 62.456 47.378 62.8326 47.5417C63.2093 47.7055 63.613 47.7898 64.0207 47.7898H77.1599C77.5743 47.8011 77.9867 47.7253 78.3727 47.5667C78.7587 47.4081 79.1106 47.17 79.4075 46.8664C79.7045 46.5628 79.9405 46.1999 80.1016 45.799C80.2627 45.3981 80.3458 44.9675 80.3458 44.5324C80.3458 44.0973 80.2627 43.6666 80.1016 43.2657C79.9405 42.8649 79.7045 42.5019 79.4075 42.1983C79.1106 41.8947 78.7587 41.6566 78.3727 41.498C77.9867 41.3394 77.5743 41.2636 77.1599 41.275V41.275Z"
              fill="#0085FF"/>
        <path d="M52.7832 44.7145C52.7832 47.0156 48.5133 47.79 43.2504 47.79C37.9875 47.79 33.7197 47.0156 33.7197 44.7145C33.7197 42.9536 36.2247 41.4494 39.7609 40.8423C39.6979 40.8041 39.6452 40.7496 39.608 40.6839C39.5707 40.6183 39.5502 40.5437 39.5483 40.4673C39.5576 40.3325 39.6169 40.2069 39.7136 40.1176C39.8102 40.0283 39.9364 39.9823 40.065 39.9897H40.3287V17.3097C40.2074 17.3166 40.0884 17.2739 39.9964 17.1907C39.9044 17.1075 39.8467 16.9902 39.8353 16.8633V16.8231C39.8467 16.6946 39.9056 16.5758 39.9995 16.4924C40.0933 16.4089 40.2145 16.3674 40.3372 16.3767H40.3542L42.6678 13.8257C42.8407 13.6497 43.0722 13.5513 43.3131 13.5513C43.5541 13.5513 43.7855 13.6497 43.9585 13.8257L46.2827 16.3589H46.2976C46.4202 16.3496 46.5415 16.3911 46.6353 16.4746C46.7291 16.558 46.788 16.6767 46.7994 16.8053V16.8454C46.7881 16.9723 46.7303 17.0897 46.6384 17.1729C46.5464 17.2561 46.4273 17.2987 46.3061 17.2918V20.7735H53.1915V17.9189C53.2069 17.6411 53.3251 17.3806 53.521 17.1929C53.7168 17.0053 53.9748 16.9054 54.2398 16.9146C54.5197 16.9108 54.7915 17.013 55.0053 17.2025C55.1011 17.2875 55.1783 17.393 55.2319 17.512C55.2855 17.6309 55.3141 17.7606 55.3158 17.8922V23.4071C55.3158 23.4071 55.3498 24.3846 56.0324 24.6368C56.4496 24.8037 56.7913 25.1297 56.9893 25.5496L57.085 25.7974C57.085 25.7974 57.0722 25.7974 57.0637 25.7974C56.1409 26.0088 55.2011 26.1284 54.2568 26.1545C53.3122 26.1304 52.3721 26.0093 51.4499 25.7929H51.4244L51.5201 25.5452C51.7169 25.1251 52.058 24.7989 52.4749 24.6324C53.1596 24.3802 53.1915 23.4026 53.1915 23.4026V22.9027H46.3103V39.9897H46.5634C46.692 39.9823 46.8182 40.0283 46.9148 40.1176C47.0115 40.2069 47.0708 40.3325 47.0801 40.4673C47.0785 40.5489 47.0557 40.6284 47.014 40.6972C46.9724 40.7661 46.9136 40.8216 46.8441 40.8579C50.3229 41.4806 52.7832 42.9715 52.7832 44.7145Z"
              fill="#0085FF"/>
        <path d="M57.1009 26.5582C56.1675 26.7709 55.217 26.8912 54.2622 26.9175C53.3062 26.8927 52.3548 26.7709 51.4212 26.5537C51.3909 26.5488 51.362 26.537 51.3365 26.5193C51.3109 26.5015 51.2893 26.4781 51.2731 26.4508C51.257 26.4235 51.2467 26.3928 51.2429 26.3608C51.2391 26.3289 51.2419 26.2965 51.2511 26.2658L51.3171 26.0962C51.3388 26.1094 51.3625 26.1185 51.3872 26.123C52.3321 26.3414 53.2949 26.464 54.2622 26.489C55.2266 26.4638 56.1865 26.3412 57.1286 26.123C57.1534 26.1188 57.1772 26.1097 57.1988 26.0962L57.2647 26.2658C57.2747 26.2963 57.2783 26.3287 57.2752 26.3607C57.2721 26.3928 57.2625 26.4238 57.2469 26.4516C57.2314 26.4793 57.2103 26.5033 57.1851 26.5217C57.1599 26.5401 57.1312 26.5525 57.1009 26.5582Z"
              fill="#0085FF"/>
        <path d="M43.4675 15.5526C44.8322 15.553 46.1664 15.1287 47.3014 14.3333C48.4364 13.5378 49.3212 12.407 49.8438 11.0838C50.3665 9.76062 50.5035 8.30447 50.2377 6.8995C49.9719 5.49454 49.3151 4.20386 48.3503 3.19069C47.3856 2.17751 46.1563 1.48735 44.8179 1.20747C43.4794 0.927589 42.092 1.07056 40.831 1.61831C39.5699 2.16606 38.492 3.09398 37.7334 4.28474C36.9749 5.47549 36.5698 6.87559 36.5693 8.30799C36.5693 10.2286 37.296 12.0706 38.5895 13.4291C39.883 14.7876 41.6376 15.5514 43.4675 15.5526V15.5526ZM43.4675 4.76158C44.1364 4.76114 44.7903 4.96895 45.3467 5.35871C45.903 5.74847 46.3367 6.30267 46.5929 6.95119C46.849 7.59971 46.9162 8.31341 46.7858 9.00199C46.6554 9.69056 46.3333 10.3231 45.8604 10.8195C45.3874 11.3159 44.7847 11.6539 44.1287 11.7908C43.4726 11.9276 42.7927 11.8572 42.1748 11.5883C41.5569 11.3194 41.0289 10.8643 40.6575 10.2804C40.2862 9.69644 40.0882 9.01004 40.0886 8.30799C40.0891 7.36761 40.4453 6.46591 41.0789 5.80096C41.7124 5.13601 42.5715 4.76217 43.4675 4.76158V4.76158Z"
              fill="#0085FF"/>
        <path d="M32.7617 30.6691C32.7583 31.6353 32.3912 32.5608 31.7403 33.244C31.0894 33.9271 30.2076 34.3125 29.2871 34.316H12.5372C10.8637 34.316 9.36669 33.0349 9.20295 31.2874C9.15836 30.8198 9.20767 30.3476 9.34771 29.9013C9.48774 29.455 9.71539 29.0444 10.016 28.6961C10.3165 28.3478 10.6833 28.0696 11.0927 27.8793C11.5021 27.689 11.9449 27.591 12.3926 27.5914H26.1166C25.4879 25.4163 24.2098 23.5109 22.4707 22.1563C20.7317 20.8016 18.624 20.0695 16.4583 20.0679C8.94991 20.0679 3.33187 28.7007 8.13761 36.9875C8.67991 37.9219 9.42171 38.7111 10.3044 39.293C15.0634 42.46 20.0265 41.5427 23.1864 38.5654C23.7605 38.0111 24.5094 37.6988 25.2894 37.6883H25.3723C28.2111 37.6883 29.504 41.3463 27.401 43.3505C22.6186 47.9102 15.259 49.5216 7.91646 45.4797C5.59884 44.2089 3.69362 42.2434 2.44302 39.8331C-4.25312 26.7679 4.65026 13.562 16.452 13.562C20.3031 13.5655 24.0289 14.9987 26.9702 17.6079C29.9115 20.2171 31.8786 23.8341 32.5235 27.8191C32.6837 28.7598 32.7634 29.7136 32.7617 30.6691V30.6691Z"
              fill="#0085FF"/>
    </g>
    <defs>
        <clipPath id="clip0_13915_107">
            <rect width="114.857" height="48" fill="white" transform="translate(0.142578)"/>
        </clipPath>
    </defs>
</svg>
